<?xml version="1.0" encoding="utf-8"?>
<!-- Generator: Adobe Illustrator 19.1.0, SVG Export Plug-In . SVG Version: 6.00 Build 0)  -->
<svg version="1.1" xmlns="http://www.w3.org/2000/svg" xmlns:xlink="http://www.w3.org/1999/xlink" x="0px" y="0px"
	 viewBox="391.1 648.7 392 365.8" style="enable-background:new 391.1 648.7 392 365.8;" xml:space="preserve">
<style type="text/css">
	.st0{fill:url(#SVGID_1_);}
	.st1{opacity:0.66;fill:none;stroke:#5B6177;stroke-width:2;stroke-miterlimit:10;enable-background:new    ;}
	.st2{opacity:0.66;}
	.st3{fill:none;stroke:#052844;stroke-width:4;stroke-miterlimit:10;}
	.st4{fill:#052844;}
	.st5{fill:#FFFFFF;stroke:url(#SVGID_2_);stroke-width:2;stroke-linecap:round;stroke-miterlimit:10;}
	.st6{fill:none;}
	.st7{fill:none;stroke:#142A43;stroke-width:4;stroke-miterlimit:10;}
	.st8{fill:#142A43;}
	.st9{opacity:0.66;fill:none;stroke:#606279;stroke-width:2;stroke-miterlimit:10;enable-background:new    ;}
	.st10{display:none;}
	.st11{display:inline;}
	.st12{fill:url(#SVGID_3_);}
	.st13{display:inline;opacity:0.66;fill:none;stroke:#606279;stroke-width:2;stroke-miterlimit:10;enable-background:new    ;}
	.st14{fill:url(#SVGID_5_);}
	.st15{fill:url(#SVGID_6_);}
	.st16{fill:url(#SVGID_7_);}
	.st17{fill:url(#SVGID_8_);}
	.st18{fill:url(#SVGID_9_);}
	.st19{fill:url(#SVGID_10_);}
	.st20{fill:none;stroke:url(#SVGID_11_);stroke-width:2;stroke-miterlimit:10;}
	.st21{fill:url(#SVGID_12_);}
	.st22{fill:url(#SVGID_13_);}
	.st23{fill:none;stroke:#C9C8D1;stroke-width:10;stroke-miterlimit:10;}
	.st24{fill:#FFFFFF;}
	.st25{fill:url(#SVGID_14_);}
	.st26{fill:url(#SVGID_15_);}
	.st27{fill:url(#SVGID_16_);}
	.st28{fill:url(#SVGID_17_);}
	.st29{fill:url(#SVGID_18_);}
</style>
<g id="hp-product-sms_1_">
</g>
<g id="hp-product-voice">
</g>
<g id="hp-product-insight">
</g>
<g id="hp-product-verify">
</g>
<g id="hp-product-numbers">
</g>
<g id="hp-product-chat">
	<g class="st2">
		<g>
			<path class="st7" d="M581,900c-10,2.9-20.6,4.5-31.6,4.5c-15.8,0-30.8-3.3-44.4-9.1l-60.7,16l14.3-52.6
				c-13.8-18.6-22.1-41.6-22.2-66.5c-0.3-62.4,49.9-113.3,112.3-113.7S662,728.3,662.5,790.7"/>
			<g>
				<polygon class="st8" points="668.7,789.9 656.2,790 662.5,796.1 				"/>
			</g>
		</g>
	</g>
	<g>
		
			<linearGradient id="SVGID_1_" gradientUnits="userSpaceOnUse" x1="580.3074" y1="-61.8953" x2="737.8176" y2="-61.8953" gradientTransform="matrix(1 0 0 -1 0 841.67)">
			<stop  offset="7.772640e-04" style="stop-color:#ED6A72"/>
			<stop  offset="1" style="stop-color:#B64F95"/>
		</linearGradient>
		<path class="st0" d="M732.7,984.8l-43-11.2c-9.7,4.1-20.1,6.2-30.6,6.2c-0.2,0-0.3,0-0.5,0c-43.4-0.3-78.5-35.8-78.2-79.2
			c0.3-43.3,35.5-78.2,78.7-78.2c0.2,0,0.3,0,0.5,0c21,0.2,40.8,8.4,55.5,23.4c14.8,14.9,22.8,34.8,22.7,55.8
			c-0.1,16.7-5.3,32.6-15.2,46L732.7,984.8z M689.6,971.7l0.3,0.1l40.3,10.6l-9.6-35.3l0.3-0.3c9.8-13.2,15-28.8,15.1-45.3
			c0.1-20.6-7.7-39.9-22.2-54.6S680,824.1,659.4,824c-0.2,0-0.3,0-0.5,0c-42.2,0-76.7,34.2-77,76.5c-0.3,42.5,34.1,77.2,76.5,77.4
			c10.6,0.1,21-2.1,30.7-6.2H689.6z"/>
	</g>
	
		<linearGradient id="SVGID_2_" gradientUnits="userSpaceOnUse" x1="499.5591" y1="88.7245" x2="564.4078" y2="23.8758" gradientTransform="matrix(1 0 0 -1 0 841.67)">
		<stop  offset="7.772640e-04" style="stop-color:#ED6A72"/>
		<stop  offset="1" style="stop-color:#B64F95"/>
	</linearGradient>
	<path style="fill:url(#SVGID_2_);" d="M500.4,771.6c0,4.5-3.6,8.1-8.1,8.1s-8.1-3.6-8.1-8.1s3.6-8.1,8.1-8.1
		S500.4,767.1,500.4,771.6z M603.4,767.6h-93.5v7.7h93.5V767.6z M582.1,792.4h-99.7v7.7h99.7V792.4z M556.4,817.3h-74v7.7h74V817.3z
		"/>
</g>
</svg>
