<?xml version="1.0" encoding="utf-8"?>
<!-- Generator: Adobe Illustrator 19.1.0, SVG Export Plug-In . SVG Version: 6.00 Build 0)  -->
<svg version="1.1" xmlns="http://www.w3.org/2000/svg" xmlns:xlink="http://www.w3.org/1999/xlink" x="0px" y="0px"
	 viewBox="794.9 238 392 365.8" style="enable-background:new 794.9 238 392 365.8;" xml:space="preserve">
<style type="text/css">
	.st0{fill:url(#SVGID_1_);}
	.st1{opacity:0.66;fill:none;stroke:#5B6177;stroke-width:2;stroke-miterlimit:10;enable-background:new    ;}
	.st2{opacity:0.66;}
	.st3{fill:none;stroke:#052844;stroke-width:4;stroke-miterlimit:10;}
	.st4{fill:#052844;}
	.st5{fill:#FFFFFF;stroke:url(#SVGID_2_);stroke-width:2;stroke-linecap:round;stroke-miterlimit:10;}
	.st6{fill:none;}
	.st7{fill:none;stroke:#142A43;stroke-width:4;stroke-miterlimit:10;}
	.st8{fill:#142A43;}
	.st9{opacity:0.66;fill:none;stroke:#606279;stroke-width:2;stroke-miterlimit:10;enable-background:new    ;}
	.st10{display:none;}
	.st11{display:inline;}
	.st12{fill:url(#SVGID_3_);}
	.st13{display:inline;opacity:0.66;fill:none;stroke:#606279;stroke-width:2;stroke-miterlimit:10;enable-background:new    ;}
	.st14{fill:url(#SVGID_5_);}
	.st15{fill:url(#SVGID_6_);}
	.st16{fill:url(#SVGID_7_);}
	.st17{fill:url(#SVGID_8_);}
	.st18{fill:url(#SVGID_9_);}
	.st19{fill:url(#SVGID_10_);}
	.st20{fill:none;stroke:url(#SVGID_11_);stroke-width:2;stroke-miterlimit:10;}
	.st21{fill:url(#SVGID_12_);}
	.st22{fill:url(#SVGID_13_);}
	.st23{fill:none;stroke:#C9C8D1;stroke-width:10;stroke-miterlimit:10;}
	.st24{fill:#FFFFFF;}
	.st25{fill:url(#SVGID_14_);}
	.st26{fill:url(#SVGID_15_);}
	.st27{fill:url(#SVGID_16_);}
	.st28{fill:url(#SVGID_17_);}
	.st29{fill:url(#SVGID_18_);}
</style>
<g id="hp-product-sms_1_">
</g>
<g id="hp-product-voice">
</g>
<g id="hp-product-insight">
</g>
<g id="hp-product-verify">
	<g class="st2">
		<g>
			<path class="st7" d="M857.7,497.1c-8.7-15.2-15-32.3-18.1-50.6c-14.2-83.5,42.1-162.6,125.7-176.7
				c83.6-14.2,162.6,42.1,176.7,125.7s-42.1,162.6-125.7,176.7c-26,4.4-51.5,2-74.8-6"/>
			<g>
				<polygon class="st8" points="940.2,572.5 944.5,560 936.1,564.1 				"/>
			</g>
		</g>
	</g>
	
		<linearGradient id="SVGID_1_" gradientUnits="userSpaceOnUse" x1="1013.0604" y1="519.0428" x2="1074.5186" y2="457.5847" gradientTransform="matrix(1 0 0 -1 0 841.67)">
		<stop  offset="0" style="stop-color:#9498CB"/>
		<stop  offset="1" style="stop-color:#5B358C"/>
	</linearGradient>
	<circle class="st0" cx="1043.8" cy="353.4" r="43.5"/>
	<line class="st23" x1="1007.4" y1="390.6" x2="867.8" y2="530.3"/>
	<g>
		<circle class="st24" cx="1054.1" cy="343.1" r="13.1"/>
		
			<linearGradient id="SVGID_2_" gradientUnits="userSpaceOnUse" x1="1040.614" y1="498.5658" x2="1067.5895" y2="498.5658" gradientTransform="matrix(1 0 0 -1 0 841.67)">
			<stop  offset="0" style="stop-color:#9498CB"/>
			<stop  offset="1" style="stop-color:#5B358C"/>
		</linearGradient>
		<path style="fill:url(#SVGID_2_);" d="M1054.1,356.6c-7.5,0-13.5-6.1-13.5-13.5c0-7.5,6.1-13.5,13.5-13.5s13.5,6.1,13.5,13.5
			C1067.7,350.6,1061.6,356.6,1054.1,356.6z M1054.1,330.5c-7,0-12.6,5.7-12.6,12.6s5.7,12.6,12.6,12.6c7,0,12.6-5.7,12.6-12.6
			S1061.1,330.5,1054.1,330.5z"/>
	</g>
	
		<linearGradient id="SVGID_3_" gradientUnits="userSpaceOnUse" x1="896.6505" y1="323.5843" x2="915.7656" y2="304.4691" gradientTransform="matrix(1 0 0 -1 0 841.67)">
		<stop  offset="0" style="stop-color:#9498CB"/>
		<stop  offset="1" style="stop-color:#5B358C"/>
	</linearGradient>
	<path class="st12" d="M913.1,528.8l-13.6-13.6l13.2-13.2l13.6,13.6L913.1,528.8z M913,540.1l-19.1-19.1l-13.2,13.2l19.1,19.1
		L913,540.1z"/>
</g>
<g id="hp-product-numbers">
</g>
<g id="hp-product-chat">
</g>
</svg>
