<?xml version="1.0" encoding="utf-8"?>
<!-- Generator: Adobe Illustrator 19.1.0, SVG Export Plug-In . SVG Version: 6.00 Build 0)  -->
<svg version="1.1" xmlns="http://www.w3.org/2000/svg" xmlns:xlink="http://www.w3.org/1999/xlink" x="0px" y="0px"
	 viewBox="387.4 238 392 365.8" style="enable-background:new 387.4 238 392 365.8;" xml:space="preserve">
<style type="text/css">
	.st0{fill:url(#SVGID_1_);}
	.st1{opacity:0.66;fill:none;stroke:#5B6177;stroke-width:2;stroke-miterlimit:10;enable-background:new    ;}
	.st2{opacity:0.66;}
	.st3{fill:none;stroke:#052844;stroke-width:4;stroke-miterlimit:10;}
	.st4{fill:#052844;}
	.st5{fill:#FFFFFF;stroke:url(#SVGID_2_);stroke-width:2;stroke-linecap:round;stroke-miterlimit:10;}
	.st6{fill:none;}
	.st7{fill:none;stroke:#142A43;stroke-width:4;stroke-miterlimit:10;}
	.st8{fill:#142A43;}
	.st9{opacity:0.66;fill:none;stroke:#606279;stroke-width:2;stroke-miterlimit:10;enable-background:new    ;}
	.st10{display:none;}
	.st11{display:inline;}
	.st12{fill:url(#SVGID_3_);}
	.st13{display:inline;opacity:0.66;fill:none;stroke:#606279;stroke-width:2;stroke-miterlimit:10;enable-background:new    ;}
	.st14{fill:url(#SVGID_5_);}
	.st15{fill:url(#SVGID_6_);}
	.st16{fill:url(#SVGID_7_);}
	.st17{fill:url(#SVGID_8_);}
	.st18{fill:url(#SVGID_9_);}
	.st19{fill:url(#SVGID_10_);}
	.st20{fill:none;stroke:url(#SVGID_11_);stroke-width:2;stroke-miterlimit:10;}
	.st21{fill:url(#SVGID_12_);}
	.st22{fill:url(#SVGID_13_);}
	.st23{fill:none;stroke:#C9C8D1;stroke-width:10;stroke-miterlimit:10;}
	.st24{fill:#FFFFFF;}
	.st25{fill:url(#SVGID_14_);}
	.st26{fill:url(#SVGID_15_);}
	.st27{fill:url(#SVGID_16_);}
	.st28{fill:url(#SVGID_17_);}
	.st29{fill:url(#SVGID_18_);}
</style>
<g id="hp-product-sms_1_">
</g>
<g id="hp-product-voice">
	<g>
		<path class="st6" d="M583.4,541.2L583.4,541.2c-40.5,0-73.6-33.1-73.6-73.6v-91.3c0-40.5,33.1-73.6,73.6-73.6l0,0
			c40.5,0,73.6,33.1,73.6,73.6v91.3C657.1,508.1,624,541.2,583.4,541.2z"/>
		<g class="st2">
			<g>
				<path class="st7" d="M657.1,399.7v67.8c0,40.5-33.1,73.6-73.6,73.6l0,0c-40.5,0-73.6-33.1-73.6-73.6v-91.3
					c0-40.5,33.1-73.6,73.6-73.6l0,0"/>
				<g>
					<polygon class="st8" points="664.4,400.7 649.8,400.7 657.1,393.4 					"/>
				</g>
			</g>
		</g>
		<path class="st9" d="M686.6,467.6c0,56.8-46.3,103.1-103.1,103.1c-38.1,0-71.4-20.7-89.2-51.5"/>
		<g class="st10">
			<g class="st11">
				
					<linearGradient id="SVGID_1_" gradientUnits="userSpaceOnUse" x1="511.6156" y1="573.1207" x2="491.2515" y2="593.4847" gradientTransform="matrix(-1 0 0 -1 1084.8398 841.67)">
					<stop  offset="0" style="stop-color:#62A5DA"/>
					<stop  offset="1" style="stop-color:#944F94"/>
				</linearGradient>
				<path class="st0" d="M583.4,278.3c-0.6,0-1-0.4-1-1v-37.9c0-0.6,0.4-1,1-1s1,0.4,1,1v37.9C584.4,277.9,583.9,278.3,583.4,278.3z
					"/>
			</g>
			<line class="st13" x1="583.4" y1="583.9" x2="583.4" y2="603.3"/>
			<g class="st11">
				
					<linearGradient id="SVGID_2_" gradientUnits="userSpaceOnUse" x1="-873.1494" y1="131.497" x2="-884.2881" y2="142.6358" gradientTransform="matrix(-0.5 0.866 -0.866 -0.5 168.6191 1151.4764)">
					<stop  offset="0" style="stop-color:#62A5DA"/>
					<stop  offset="1" style="stop-color:#944F94"/>
				</linearGradient>
				<path style="fill:url(#SVGID_2_);" d="M497.7,327.8c-0.2,0-0.3,0-0.5-0.1l-16.8-9.7c-0.5-0.3-0.6-0.9-0.4-1.4s0.9-0.6,1.4-0.4
					l16.8,9.7c0.5,0.3,0.6,0.9,0.4,1.4C498.4,327.7,498,327.8,497.7,327.8z"/>
			</g>
			<g class="st11">
				
					<linearGradient id="SVGID_3_" gradientUnits="userSpaceOnUse" x1="-239.3234" y1="537.1781" x2="-255.0758" y2="552.9307" gradientTransform="matrix(-0.866 0.5 -0.5 -0.866 585.2365 873.8059)">
					<stop  offset="0" style="stop-color:#62A5DA"/>
					<stop  offset="1" style="stop-color:#944F94"/>
				</linearGradient>
				<path class="st12" d="M534,291.6c-0.3,0-0.7-0.2-0.9-0.5l-14.4-24.9c-0.3-0.5-0.1-1.1,0.4-1.4c0.5-0.3,1.1-0.1,1.4,0.4
					l14.4,24.9c0.3,0.5,0.1,1.1-0.4,1.4C534.3,291.6,534.2,291.6,534,291.6z"/>
			</g>
			<g class="st11">
				
					<linearGradient id="SVGID_5_" gradientUnits="userSpaceOnUse" x1="-1184.7545" y1="-408.2528" x2="-1195.8928" y2="-397.1143" gradientTransform="matrix(0.5 0.866 0.866 -0.5 1621.467 1151.4764)">
					<stop  offset="0" style="stop-color:#62A5DA"/>
					<stop  offset="1" style="stop-color:#944F94"/>
				</linearGradient>
				<path class="st14" d="M669.2,327.8c-0.3,0-0.7-0.2-0.9-0.5c-0.3-0.5-0.1-1.1,0.4-1.4l16.8-9.7c0.5-0.3,1.1-0.1,1.4,0.4
					c0.3,0.5,0.1,1.1-0.4,1.4l-16.8,9.7C669.5,327.8,669.4,327.8,669.2,327.8z"/>
			</g>
			<g class="st11">
				
					<linearGradient id="SVGID_6_" gradientUnits="userSpaceOnUse" x1="-779.063" y1="225.564" x2="-794.8156" y2="241.3168" gradientTransform="matrix(0.866 0.5 0.5 -0.866 1204.8495 873.8059)">
					<stop  offset="0" style="stop-color:#62A5DA"/>
					<stop  offset="1" style="stop-color:#944F94"/>
				</linearGradient>
				<path class="st15" d="M632.9,291.6c-0.2,0-0.3,0-0.5-0.1c-0.5-0.3-0.6-0.9-0.4-1.4l14.4-24.9c0.3-0.5,0.9-0.6,1.4-0.4
					c0.5,0.3,0.6,0.9,0.4,1.4l-14.4,24.9C633.6,291.5,633.2,291.6,632.9,291.6z"/>
			</g>
		</g>
		<g>
			
				<linearGradient id="SVGID_7_" gradientUnits="userSpaceOnUse" x1="528.2114" y1="586.0022" x2="638.5558" y2="475.6577" gradientTransform="matrix(1 0 0 -1 0 841.67)">
				<stop  offset="0" style="stop-color:#FFEE6E"/>
				<stop  offset="1" style="stop-color:#EC6872"/>
			</linearGradient>
			<path class="st16" d="M583.4,278.3c-0.6,0-1-0.4-1-1v-37.9c0-0.6,0.4-1,1-1c0.6,0,1,0.4,1,1v37.9
				C584.4,277.9,584,278.3,583.4,278.3z M498.6,327.3c0.3-0.5,0.1-1.1-0.4-1.4l-16.8-9.7c-0.5-0.3-1.1-0.1-1.4,0.4
				c-0.3,0.5-0.1,1.1,0.4,1.4l16.8,9.7c0.2,0.1,0.3,0.1,0.5,0.1C498.1,327.8,498.4,327.6,498.6,327.3z M534.5,291.4
				c0.5-0.3,0.6-0.9,0.4-1.4l-14.4-24.8c-0.3-0.5-0.9-0.6-1.4-0.4c-0.5,0.3-0.6,0.9-0.4,1.4L533,291c0.2,0.3,0.5,0.5,0.9,0.5
				C534.1,291.6,534.3,291.5,534.5,291.4z M669.7,327.7l16.8-9.7c0.5-0.3,0.6-0.9,0.4-1.4c-0.3-0.5-0.9-0.6-1.4-0.4l-16.8,9.7
				c-0.5,0.3-0.6,0.9-0.4,1.4c0.2,0.3,0.5,0.5,0.9,0.5C669.3,327.8,669.5,327.7,669.7,327.7z M633.8,291.1l14.3-24.8
				c0.3-0.5,0.1-1.1-0.4-1.4c-0.5-0.3-1.1-0.1-1.4,0.4L632,290.1c-0.3,0.5-0.1,1.1,0.4,1.4c0.2,0.1,0.3,0.1,0.5,0.1
				C633.3,291.6,633.6,291.4,633.8,291.1z"/>
			<line class="st9" x1="583.4" y1="583.9" x2="583.4" y2="603.3"/>
		</g>
		
			<linearGradient id="SVGID_8_" gradientUnits="userSpaceOnUse" x1="547.1399" y1="494.1738" x2="592.3087" y2="449.0049" gradientTransform="matrix(1 0 0 -1 0 841.67)">
			<stop  offset="0" style="stop-color:#FFEE6E"/>
			<stop  offset="1" style="stop-color:#E94A75"/>
		</linearGradient>
		<path class="st17" d="M576,334.6c4.6,0,8.4,3.8,8.4,8.4c0,4.6-3.8,8.4-8.4,8.4c-4.6,0-8.4-3.8-8.4-8.4
			C567.6,338.4,571.3,334.6,576,334.6z M576,361.7c4.6,0,8.4,3.8,8.4,8.4c0,4.6-3.8,8.4-8.4,8.4c-4.6,0-8.4-3.8-8.4-8.4
			C567.6,365.4,571.3,361.7,576,361.7z M576,388.7c4.6,0,8.4,3.8,8.4,8.4c0,4.6-3.8,8.4-8.4,8.4c-4.6,0-8.4-3.8-8.4-8.4
			C567.6,392.5,571.3,388.7,576,388.7z M550,348.1c4.6,0,8.4,3.8,8.4,8.4c0,4.6-3.8,8.4-8.4,8.4c-4.6,0-8.4-3.8-8.4-8.4
			C541.6,351.9,545.3,348.1,550,348.1z M550,375.2c4.6,0,8.4,3.8,8.4,8.4c0,4.6-3.8,8.4-8.4,8.4c-4.6,0-8.4-3.8-8.4-8.4
			C541.6,379,545.3,375.2,550,375.2z"/>
	</g>
</g>
<g id="hp-product-insight">
</g>
<g id="hp-product-verify">
</g>
<g id="hp-product-numbers">
</g>
<g id="hp-product-chat">
</g>
</svg>
